#N canvas 510 116 490 352 10;
#X obj 72 272 dac~;
#X obj 245 101 soundfiler;
#X obj 245 63 loadbang;
#X msg 245 82 read -resize window.wav window;
#X obj 246 38 table window 1024;
#X obj 245 204 s __length__;
#X floatatom 245 188 5 0 0 0 - - -, f 5;
#X obj 299 150 loadbang;
#X msg 299 169 1000;
#X obj 245 120 s window_size;
#X floatatom 245 264 5 0 0 0 - - -, f 5;
#X obj 245 280 s __rate__;
#X msg 287 245 1;
#X obj 102 120 r __length__;
#X obj 72 139 metro;
#X msg 72 180 0;
#X msg 112 180 0.25;
#X msg 152 180 0.5;
#X msg 192 180 0.75;
#X obj 72 239 +~;
#X obj 72 199 sub;
#X obj 112 199 sub;
#X obj 152 199 sub;
#X obj 192 199 sub;
#X obj 245 169 r length;
#X obj 245 245 r rate;
#X obj 287 226 loadbang;
#X obj 72 43 adc~;
#X msg 72 120 1;
#X obj 72 101 loadbang;
#X obj 72 62 delwrite~ d 30000;
#X connect 1 0 9 0;
#X connect 2 0 3 0;
#X connect 3 0 1 0;
#X connect 6 0 5 0;
#X connect 7 0 8 0;
#X connect 8 0 6 0;
#X connect 10 0 11 0;
#X connect 12 0 10 0;
#X connect 13 0 14 1;
#X connect 14 0 15 0;
#X connect 14 0 16 0;
#X connect 14 0 17 0;
#X connect 14 0 18 0;
#X connect 15 0 20 0;
#X connect 16 0 21 0;
#X connect 17 0 22 0;
#X connect 18 0 23 0;
#X connect 19 0 0 0;
#X connect 19 0 0 1;
#X connect 20 0 19 0;
#X connect 21 0 19 0;
#X connect 22 0 19 0;
#X connect 23 0 19 0;
#X connect 24 0 6 0;
#X connect 25 0 10 0;
#X connect 26 0 12 0;
#X connect 27 0 30 0;
#X connect 28 0 14 0;
#X connect 29 0 28 0;
