#N canvas 974 162 414 628 10;
#X obj 71 331 line~;
#X obj 195 435 vd~ d;
#X obj 71 426 tabread~ window;
#X obj 195 387 *~ 1;
#X msg 142 299 1 \, 0 \$1;
#X obj 142 280 f;
#X obj 86 388 r window_size;
#X obj 71 407 *~;
#X msg 71 299 0 \, 1 \$1;
#X obj 216 299 - 1;
#X obj 71 174 moses 1;
#X obj 86 136 r __rate__;
#X obj 71 155 f;
#X obj 142 231 t b f;
#X obj 71 193 * -1;
#X obj 71 212 + 1;
#X obj 71 231 t b f;
#X obj 71 280 f;
#X obj 71 468 *~;
#X obj 240 387 f;
#X obj 71 106 t b b;
#X obj 195 416 *~;
#X obj 240 138 bng 15 250 50 0 empty empty empty 17 7 0 10 -262144
-1 -1;
#X obj 71 487 outlet~;
#X obj 71 40 inlet;
#X obj 71 87 delay;
#X obj 71 68 *;
#X obj 261 40 r __length__;
#X connect 0 0 3 0;
#X connect 0 0 7 0;
#X connect 1 0 18 1;
#X connect 2 0 18 0;
#X connect 3 0 21 0;
#X connect 4 0 0 0;
#X connect 5 0 4 0;
#X connect 6 0 7 1;
#X connect 7 0 2 0;
#X connect 8 0 0 0;
#X connect 9 0 3 1;
#X connect 10 0 14 0;
#X connect 10 1 13 0;
#X connect 11 0 12 1;
#X connect 12 0 10 0;
#X connect 13 0 5 0;
#X connect 13 1 9 0;
#X connect 14 0 15 0;
#X connect 15 0 16 0;
#X connect 16 0 17 0;
#X connect 16 1 3 1;
#X connect 17 0 8 0;
#X connect 18 0 23 0;
#X connect 19 0 21 1;
#X connect 20 0 12 0;
#X connect 20 1 22 0;
#X connect 21 0 1 0;
#X connect 22 0 19 0;
#X connect 24 0 26 0;
#X connect 25 0 20 0;
#X connect 26 0 25 0;
#X connect 27 0 26 1;
#X connect 27 0 19 1;
#X connect 27 0 17 1;
#X connect 27 0 5 1;
